<svg xmlns="http://www.w3.org/2000/svg" viewBox="0 0 880 500" font-family="-apple-system, 'PingFang SC', 'Hiragino Sans GB', 'Microsoft YaHei', sans-serif">
  <defs>
    <marker id="arrowBlue" viewBox="0 0 10 10" refX="9" refY="5" markerWidth="7" markerHeight="7" orient="auto">
      <path d="M0,0 L10,5 L0,10 z" fill="#3390ec"/>
    </marker>
    <marker id="arrowGreen" viewBox="0 0 10 10" refX="9" refY="5" markerWidth="7" markerHeight="7" orient="auto">
      <path d="M0,0 L10,5 L0,10 z" fill="#34c759"/>
    </marker>
  </defs>

  <rect width="880" height="500" fill="#f5f5f7"/>

  <!-- ============ 左侧：用户张三的私聊 ============ -->
  <rect x="20" y="40" width="360" height="420" rx="18" fill="#ffffff" stroke="#e2e2e7"/>
  <rect x="20" y="40" width="360" height="56" rx="18" fill="#eef3f8"/>
  <rect x="20" y="68" width="360" height="28" fill="#eef3f8"/>
  <circle cx="52" cy="68" r="17" fill="#3390ec"/>
  <text x="52" y="74" text-anchor="middle" fill="#ffffff" font-size="16" font-weight="bold">H</text>
  <text x="80" y="63" fill="#1c1c1e" font-size="15" font-weight="bold">Hodor 客服 Bot</text>
  <text x="80" y="81" fill="#8e8e93" font-size="12">bot</text>

  <rect x="36" y="112" width="250" height="56" rx="12" fill="#eef0f4"/>
  <text x="48" y="134" fill="#1c1c1e" font-size="13">欢迎使用 Hodor 客服！</text>
  <text x="48" y="154" fill="#1c1c1e" font-size="13">请完成人机验证：3 + 4 = ?</text>

  <rect x="36" y="182" width="62" height="28" rx="9" fill="#ffffff" stroke="#3390ec"/>
  <text x="67" y="201" text-anchor="middle" fill="#3390ec" font-size="13">5</text>
  <rect x="108" y="182" width="62" height="28" rx="9" fill="#ffffff" stroke="#3390ec"/>
  <text x="139" y="201" text-anchor="middle" fill="#3390ec" font-size="13">7</text>
  <rect x="180" y="182" width="62" height="28" rx="9" fill="#ffffff" stroke="#3390ec"/>
  <text x="211" y="201" text-anchor="middle" fill="#3390ec" font-size="13">9</text>
  <rect x="252" y="182" width="62" height="28" rx="9" fill="#ffffff" stroke="#3390ec"/>
  <text x="283" y="201" text-anchor="middle" fill="#3390ec" font-size="13">12</text>

  <rect x="290" y="224" width="74" height="30" rx="12" fill="#e1fec6"/>
  <text x="352" y="244" text-anchor="end" fill="#1c1c1e" font-size="13">7</text>

  <rect x="36" y="268" width="112" height="30" rx="12" fill="#eef0f4"/>
  <text x="48" y="288" fill="#1c1c1e" font-size="13">验证通过 ✓</text>

  <rect x="214" y="312" width="150" height="30" rx="12" fill="#e1fec6"/>
  <text x="352" y="332" text-anchor="end" fill="#1c1c1e" font-size="13">你们支持退款吗？</text>

  <rect x="36" y="356" width="252" height="52" rx="12" fill="#eef0f4"/>
  <text x="48" y="378" font-size="13"><tspan fill="#3390ec" font-weight="bold">管理员</tspan><tspan fill="#1c1c1e"> 支持，请提供</tspan></text>
  <text x="48" y="398" fill="#1c1c1e" font-size="13">订单号即可办理退款</text>

  <text x="200" y="444" text-anchor="middle" fill="#8e8e93" font-size="12">用户「张三」的私聊 · 验证与收发</text>

  <!-- ============ 中间箭头 ============ -->
  <line x1="392" y1="145" x2="486" y2="145" stroke="#3390ec" stroke-width="2" marker-end="url(#arrowBlue)"/>
  <text x="440" y="133" text-anchor="middle" fill="#3390ec" font-size="12">验证后转发</text>
  <line x1="488" y1="180" x2="394" y2="180" stroke="#34c759" stroke-width="2" marker-end="url(#arrowGreen)"/>
  <text x="440" y="198" text-anchor="middle" fill="#34c759" font-size="12">回复直达</text>

  <!-- ============ 右侧：客服群多话题 ============ -->
  <rect x="500" y="40" width="360" height="420" rx="18" fill="#ffffff" stroke="#e2e2e7"/>
  <rect x="500" y="40" width="360" height="56" rx="18" fill="#eef3f8"/>
  <rect x="500" y="68" width="360" height="28" fill="#eef3f8"/>
  <circle cx="532" cy="68" r="17" fill="#4aa3e8"/>
  <text x="532" y="73" text-anchor="middle" fill="#ffffff" font-size="13" font-weight="bold">群</text>
  <text x="560" y="63" fill="#1c1c1e" font-size="15" font-weight="bold">客服超级群组</text>
  <text x="560" y="81" fill="#8e8e93" font-size="12">话题（Topics）视图</text>

  <rect x="516" y="112" width="328" height="84" rx="12" fill="#eef3f8" stroke="#3390ec" stroke-width="1.5"/>
  <circle cx="542" cy="154" r="14" fill="#3390ec"/>
  <text x="542" y="159" text-anchor="middle" fill="#ffffff" font-size="13" font-weight="bold">张</text>
  <text x="566" y="140" font-size="13"><tspan fill="#1c1c1e" font-weight="bold">张三</tspan><tspan fill="#34c759"> ✅ 已验证</tspan><tspan fill="#8e8e93"> · #12</tspan></text>
  <text x="566" y="160" fill="#8e8e93" font-size="12">张三：你们支持退款吗？</text>
  <text x="566" y="180" font-size="12"><tspan fill="#e78a3c">管理员</tspan><tspan fill="#8e8e93">：支持，请提供订单号</tspan></text>

  <rect x="516" y="208" width="328" height="56" rx="12" fill="#fafafa" stroke="#e2e2e7"/>
  <circle cx="542" cy="236" r="14" fill="#26a69a"/>
  <text x="542" y="241" text-anchor="middle" fill="#ffffff" font-size="13" font-weight="bold">李</text>
  <text x="566" y="232" font-size="13"><tspan fill="#1c1c1e" font-weight="bold">李四</tspan><tspan fill="#34c759"> ✅ 已验证</tspan><tspan fill="#8e8e93"> · #13</tspan></text>
  <text x="566" y="252" fill="#8e8e93" font-size="12">发货了什么时候能到？</text>

  <rect x="516" y="276" width="328" height="56" rx="12" fill="#fafafa" stroke="#e2e2e7"/>
  <circle cx="542" cy="304" r="14" fill="#e78a3c"/>
  <text x="542" y="309" text-anchor="middle" fill="#ffffff" font-size="13" font-weight="bold">王</text>
  <text x="566" y="300" font-size="13"><tspan fill="#1c1c1e" font-weight="bold">王五</tspan><tspan fill="#34c759"> ✅ 已验证</tspan><tspan fill="#8e8e93"> · #14</tspan></text>
  <text x="566" y="320" fill="#8e8e93" font-size="12">可以开发票吗？</text>

  <text x="680" y="436" text-anchor="middle" fill="#8e8e93" font-size="12">每个用户独占一个话题 · 并发咨询互不串线</text>

  <text x="440" y="488" text-anchor="middle" fill="#6d6d72" font-size="13">一个用户一个话题 —— 多客户并发，消息不串线</text>
</svg>
